<svg xmlns="http://www.w3.org/2000/svg" width="1200" height="610" viewBox="0 0 1200 610">
<rect width="100%" height="100%" fill="white"/><g font-family="sans-serif" font-size="14">
<text x="20" y="25">Stage 3: medians across runs; CPU-observed milliseconds (separate scales per panel)</text>
<text x="20" y="60">Maximum short-request ITL</text>
<text x="20" y="90">long_burst / prefill_first</text><rect x="20" y="98" width="299.84867837528935" height="20" fill="#d88724"/><text x="329.84867837528935" y="114">1404.37</text>
<text x="20" y="160">long_burst / decode_first</text><rect x="20" y="168" width="2.5695102670587446" height="20" fill="#3286bb"/><text x="32.569510267058746" y="184">12.03</text>
<text x="20" y="230">long_burst / alternating</text><rect x="20" y="238" width="22.506295438526998" height="20" fill="#27935a"/><text x="52.506295438527" y="254">105.41</text>
<text x="20" y="300">sustained / prefill_first</text><rect x="20" y="308" width="300.0" height="20" fill="#d88724"/><text x="330.0" y="324">1405.08</text>
<text x="20" y="370">sustained / decode_first</text><rect x="20" y="378" width="2.541212241351101" height="20" fill="#3286bb"/><text x="32.541212241351104" y="394">11.90</text>
<text x="20" y="440">sustained / alternating</text><rect x="20" y="448" width="22.631543539682653" height="20" fill="#27935a"/><text x="52.63154353968265" y="464">106.00</text>
<text x="610" y="60">Long-request median TTFT</text>
<text x="610" y="90">long_burst / prefill_first</text><rect x="610" y="98" width="21.95200241840663" height="20" fill="#d88724"/><text x="641.9520024184067" y="114">876.39</text>
<text x="610" y="160">long_burst / decode_first</text><rect x="610" y="168" width="145.59122592083904" height="20" fill="#3286bb"/><text x="765.5912259208391" y="184">5812.43</text>
<text x="610" y="230">long_burst / alternating</text><rect x="610" y="238" width="24.501184735559416" height="20" fill="#27935a"/><text x="644.5011847355594" y="254">978.16</text>
<text x="610" y="300">sustained / prefill_first</text><rect x="610" y="308" width="47.11526559721548" height="20" fill="#d88724"/><text x="667.1152655972155" y="324">1880.98</text>
<text x="610" y="370">sustained / decode_first</text><rect x="610" y="378" width="300.0" height="20" fill="#3286bb"/><text x="920.0" y="394">11976.88</text>
<text x="610" y="440">sustained / alternating</text><rect x="610" y="448" width="50.03184764595632" height="20" fill="#27935a"/><text x="670.0318476459563" y="464">1997.42</text>
</g></svg>